{"scene":0,"asset":{"generator":"ImageToStl.com","version":"2.0"},"scenes":[{"name":"Scene","nodes":[0]}],"nodes":[{"name":"Node0","children":[1]},{"name":"Node1","mesh":0,"children":[2,3,4]},{"name":"Node2","mesh":1},{"name":"Node3","mesh":2},{"name":"Node4","mesh":3}],"materials":[{"name":"#FFC0C0FF","pbrMetallicRoughness":{"baseColorFactor":[1.0,0.7529412,0.7529412,1.0],"metallicFactor":0.05,"roughnessFactor":0.5},"doubleSided":true},{"name":"#CAD1EEFF","pbrMetallicRoughness":{"baseColorFactor":[0.7921569,0.81960785,0.93333334,1.0],"metallicFactor":0.05,"roughnessFactor":0.5},"doubleSided":true},{"name":"#0000FFFF","pbrMetallicRoughness":{"baseColorFactor":[0.0,0.0,1.0,1.0],"metallicFactor":0.05,"roughnessFactor":0.5},"doubleSided":true}],"meshes":[{"name":"Mesh0","primitives":[{"indices":1,"material":1,"attributes":{"POSITION":0}}]},{"name":"Mesh0","primitives":[{"indices":3,"material":1,"attributes":{"POSITION":2}}]},{"name":"Mesh0","primitives":[{"indices":5,"material":0,"attributes":{"POSITION":4}}]},{"name":"Mesh0","primitives":[{"indices":7,"material":2,"attributes":{"POSITION":6}}]}],"accessors":[{"bufferView":0,"componentType":5126,"count":33551,"type":"VEC3","min":[-83.4,-1714.24,-489.675],"max":[64.0,0.0,489.675]},{"bufferView":1,"componentType":5123,"count":159417,"type":"SCALAR"},{"bufferView":2,"componentType":5126,"count":29001,"type":"VEC3","min":[-83.4,-1714.24,-489.675],"max":[64.0,0.0,489.675]},{"bufferView":3,"componentType":5123,"count":130293,"type":"SCALAR"},{"bufferView":4,"componentType":5126,"count":4194,"type":"VEC3","min":[-19.5,-1177.24,358.72528],"max":[14.5,-1087.24,439.8253]},{"bufferView":5,"componentType":5123,"count":24552,"type":"SCALAR"},{"bufferView":6,"componentType":5126,"count":176,"type":"VEC3","min":[-9.7,-1685.74,-438.1747],"max":[4.7,-396.9,439.8253]},{"bufferView":7,"componentType":5123,"count":1032,"type":"SCALAR"}],"bufferViews":[{"target":34962,"buffer":0,"byteLength":402612,"byteOffset":0},{"target":34963,"buffer":0,"byteLength":318834,"byteOffset":402612},{"target":34962,"buffer":0,"byteLength":348012,"byteOffset":721448},{"target":34963,"buffer":0,"byteLength":260586,"byteOffset":1069460},{"target":34962,"buffer":0,"byteLength":50328,"byteOffset":1330048},{"target":34963,"buffer":0,"byteLength":49104,"byteOffset":1380376},{"target":34962,"buffer":0,"byteLength":2112,"byteOffset":1429480},{"target":34963,"buffer":0,"byteLength":2064,"byteOffset":1431592}],"buffers":[{"byteLength":1433656,"uri":"data:application/octet-stream;base64,"}]}